<svg xmlns="http://www.w3.org/2000/svg" viewBox="0 0 482.43 127.29"><defs><style>.a{fill:#fff;}.b{fill:#c1cc46;}</style></defs><title>logo</title><path class="a" d="M58.94,36.46H73.15A40.62,40.62,0,0,1,83,37.62a22.47,22.47,0,0,1,8.11,3.74,18.32,18.32,0,0,1,5.5,6.71,22.53,22.53,0,0,1,2,10,20.47,20.47,0,0,1-2,9.2A19.79,19.79,0,0,1,91.32,74a23.52,23.52,0,0,1-7.71,4.1,30,30,0,0,1-9.17,1.4H58.94v-43Zm9.48,34.26h4.92a26.46,26.46,0,0,0,6.11-.67,13,13,0,0,0,4.89-2.22,10.63,10.63,0,0,0,3.25-4.07,14.43,14.43,0,0,0,1.19-6.17,12,12,0,0,0-1.19-5.5,11,11,0,0,0-3.19-3.86A14,14,0,0,0,79.68,46,20.89,20.89,0,0,0,74,45.21H68.41V70.73Z" transform="translate(-12.97 -14.5)"/><path class="a" d="M119.26,36.46h7.84l18.71,43H135.12l-3.71-9.11H114.7l-3.58,9.11H100.67ZM122.9,49l-5.22,13.36h10.51Z" transform="translate(-12.97 -14.5)"/><path class="a" d="M145.87,36.46h10.81l10.63,28.19h0.12l10.81-28.19h10.15l-17.74,43h-7.59Z" transform="translate(-12.97 -14.5)"/><path class="a" d="M192.59,36.46h9.48v43h-9.48v-43Z" transform="translate(-12.97 -14.5)"/><path class="a" d="M210.93,36.46h14.22A40.62,40.62,0,0,1,235,37.62a22.47,22.47,0,0,1,8.11,3.74,18.32,18.32,0,0,1,5.5,6.71,22.53,22.53,0,0,1,2,10,20.47,20.47,0,0,1-2,9.2A19.79,19.79,0,0,1,243.31,74a23.52,23.52,0,0,1-7.71,4.1,30,30,0,0,1-9.17,1.4H210.93v-43Zm9.48,34.26h4.92a26.46,26.46,0,0,0,6.11-.67,13,13,0,0,0,4.89-2.22,10.63,10.63,0,0,0,3.25-4.07,14.43,14.43,0,0,0,1.19-6.17,12,12,0,0,0-1.19-5.5,11,11,0,0,0-3.19-3.86A14,14,0,0,0,231.68,46a20.89,20.89,0,0,0-5.68-.76h-5.59V70.73Z" transform="translate(-12.97 -14.5)"/><path class="a" d="M275.32,36.46h14.22a40.62,40.62,0,0,1,9.81,1.15,22.47,22.47,0,0,1,8.11,3.74,18.32,18.32,0,0,1,5.5,6.71,22.53,22.53,0,0,1,2,10,20.47,20.47,0,0,1-2,9.2A19.79,19.79,0,0,1,307.7,74a23.52,23.52,0,0,1-7.71,4.1,30,30,0,0,1-9.17,1.4H275.32v-43Zm9.48,34.26h4.92a26.46,26.46,0,0,0,6.11-.67,13,13,0,0,0,4.89-2.22A10.63,10.63,0,0,0,304,63.77a14.43,14.43,0,0,0,1.19-6.17,12,12,0,0,0-1.19-5.5,11,11,0,0,0-3.19-3.86A14,14,0,0,0,296.07,46a20.89,20.89,0,0,0-5.68-.76H284.8V70.73Z" transform="translate(-12.97 -14.5)"/><path class="a" d="M335.65,36.46h7.84l18.71,43H351.5l-3.71-9.11H331.09l-3.58,9.11H317.06ZM339.29,49l-5.22,13.36h10.51Z" transform="translate(-12.97 -14.5)"/><path class="a" d="M362.19,36.46H373l10.63,28.19h0.12l10.81-28.19h10.15L387,79.47h-7.59Z" transform="translate(-12.97 -14.5)"/><path class="a" d="M408.85,36.46h9.48v43h-9.48v-43Z" transform="translate(-12.97 -14.5)"/><path class="a" d="M448.46,47a6.75,6.75,0,0,0-3.13-2.16,11.21,11.21,0,0,0-3.74-.7,9.85,9.85,0,0,0-2.13.24,8.17,8.17,0,0,0-2.07.76,4.49,4.49,0,0,0-1.58,1.37,3.47,3.47,0,0,0-.61,2.07,3.42,3.42,0,0,0,1.46,3,13.75,13.75,0,0,0,3.67,1.76q2.22,0.73,4.77,1.46a19.68,19.68,0,0,1,4.77,2.07,11.3,11.3,0,0,1,3.68,3.58,10.93,10.93,0,0,1,1.46,6,13.83,13.83,0,0,1-1.34,6.26,12.7,12.7,0,0,1-3.61,4.43,15.38,15.38,0,0,1-5.29,2.61,24.24,24.24,0,0,1-14.12-.43A19.48,19.48,0,0,1,424,75.16l6.74-7.41a9.83,9.83,0,0,0,3.67,3,10.34,10.34,0,0,0,6.93.79,7.63,7.63,0,0,0,2.13-.82,4.59,4.59,0,0,0,1.52-1.4,3.49,3.49,0,0,0,.58-2,3.64,3.64,0,0,0-1.49-3.07,13.76,13.76,0,0,0-3.74-1.91q-2.25-.79-4.86-1.58a21.74,21.74,0,0,1-4.86-2.13,11.7,11.7,0,0,1-3.74-3.52,10.07,10.07,0,0,1-1.49-5.77,12.93,12.93,0,0,1,1.37-6.08,13.22,13.22,0,0,1,3.64-4.37,15.87,15.87,0,0,1,5.26-2.64,21.55,21.55,0,0,1,6.14-.88,24.12,24.12,0,0,1,7,1A16.28,16.28,0,0,1,455,39.87Z" transform="translate(-12.97 -14.5)"/><path class="b" d="M50.82,24.82H44.37a5.5,5.5,0,0,0-3.51,1.07,8,8,0,0,0-2.22,2.87,14.56,14.56,0,0,0-1.22,4,28.31,28.31,0,0,0-.36,4.51V58.93a21.42,21.42,0,0,1-1.22,8.46,19.58,19.58,0,0,1-3.37,5.73,15.49,15.49,0,0,1-4.09,3.44A13.57,13.57,0,0,1,25,78v0.43a11.21,11.21,0,0,1,3.37,1.15,14.11,14.11,0,0,1,4.09,3.15,17.28,17.28,0,0,1,3.37,5.81,24.47,24.47,0,0,1,1.22,9.1v21.5a27.41,27.41,0,0,0,.36,4.37,14.57,14.57,0,0,0,1.22,4,8,8,0,0,0,2.22,2.87,5.5,5.5,0,0,0,3.51,1.07h6.45v10.32H40.07a12.17,12.17,0,0,1-5.38-1.29,14.22,14.22,0,0,1-4.8-3.94,21.21,21.21,0,0,1-3.51-6.81A31.9,31.9,0,0,1,25,119.85V100.65q-0.29-7.88-3.73-12.33T13,83.87V72.69q4.87,0,8.31-4.44T25,55.92V33.28a22.29,22.29,0,0,1,1.36-8.1,18.66,18.66,0,0,1,3.51-5.88,14.86,14.86,0,0,1,4.8-3.58,12.77,12.77,0,0,1,5.38-1.22H50.82V24.82Z" transform="translate(-12.97 -14.5)"/><path class="b" d="M457.56,14.5h10.75a12.77,12.77,0,0,1,5.38,1.22,14.86,14.86,0,0,1,4.8,3.58A18.66,18.66,0,0,1,482,25.18a22.29,22.29,0,0,1,1.36,8.1V55.92q0.29,7.88,3.73,12.33t8.31,4.44V83.87q-4.87,0-8.31,4.44t-3.73,12.33v19.21a31.9,31.9,0,0,1-1.36,9.89,21.21,21.21,0,0,1-3.51,6.81,14.22,14.22,0,0,1-4.8,3.94,12.17,12.17,0,0,1-5.38,1.29H457.56V131.46H464a5.5,5.5,0,0,0,3.51-1.07,8,8,0,0,0,2.22-2.87,14.57,14.57,0,0,0,1.22-4,27.41,27.41,0,0,0,.36-4.37V97.64a24.47,24.47,0,0,1,1.22-9.1,17.28,17.28,0,0,1,3.37-5.81A14.11,14.11,0,0,1,480,79.57a11.21,11.21,0,0,1,3.37-1.15V78A13.57,13.57,0,0,1,480,76.56a15.49,15.49,0,0,1-4.09-3.44,19.58,19.58,0,0,1-3.37-5.73,21.42,21.42,0,0,1-1.22-8.46V37.29a28.31,28.31,0,0,0-.36-4.51,14.56,14.56,0,0,0-1.22-4,8,8,0,0,0-2.22-2.87A5.5,5.5,0,0,0,464,24.82h-6.45V14.5Z" transform="translate(-12.97 -14.5)"/><path class="b" d="M59.6,98.69h9.08a12.34,12.34,0,0,1,2.47.27,12.06,12.06,0,0,1,5.06,2.37,10.11,10.11,0,0,1,2.09,2.25,11.27,11.27,0,0,1,1.44,3,14.44,14.44,0,0,1,0,7.78,11.23,11.23,0,0,1-1.44,3,10.09,10.09,0,0,1-2.09,2.25,12.1,12.1,0,0,1-5.06,2.37,12.34,12.34,0,0,1-2.47.27H59.6V98.69Zm2.81,21h5.34a12.75,12.75,0,0,0,3.77-.54,8.05,8.05,0,0,0,3-1.65,7.75,7.75,0,0,0,2-2.86,12.22,12.22,0,0,0,0-8.35,7.77,7.77,0,0,0-2-2.86,8.07,8.07,0,0,0-3-1.65,12.79,12.79,0,0,0-3.77-.53H62.41v18.43Z" transform="translate(-12.97 -14.5)"/><path class="b" d="M84.91,98.69H99.77v2.61H87.72v7.41H99v2.6H87.72v8.42h12.66v2.6H84.91V98.69Z" transform="translate(-12.97 -14.5)"/><path class="b" d="M116.07,102.87a4.14,4.14,0,0,0-1.87-1.65,6,6,0,0,0-2.44-.52,7.3,7.3,0,0,0-1.84.23,5.45,5.45,0,0,0-1.62.7,3.49,3.49,0,0,0-1.15,1.24,3.6,3.6,0,0,0-.43,1.8,3.76,3.76,0,0,0,.25,1.42,3,3,0,0,0,.82,1.12,6,6,0,0,0,1.54.93,21,21,0,0,0,2.37.87q1.37,0.43,2.65.93a9,9,0,0,1,2.27,1.27,5.63,5.63,0,0,1,1.57,1.92,7.24,7.24,0,0,1-.12,6,6.42,6.42,0,0,1-1.85,2.15,8,8,0,0,1-2.65,1.27,11.55,11.55,0,0,1-3.1.42,11.85,11.85,0,0,1-2.07-.18,9.93,9.93,0,0,1-2-.57,8,8,0,0,1-1.79-1,6,6,0,0,1-1.43-1.52l2.4-2a5,5,0,0,0,2.14,2,6.53,6.53,0,0,0,4.73.4,5.55,5.55,0,0,0,1.65-.78,4.29,4.29,0,0,0,1.2-1.29,3.34,3.34,0,0,0,.47-1.77,3.78,3.78,0,0,0-.37-1.79,3.28,3.28,0,0,0-1.13-1.19,8.8,8.8,0,0,0-1.94-.9l-2.74-.94a17.11,17.11,0,0,1-2.34-.92,7.17,7.17,0,0,1-1.85-1.27,5.43,5.43,0,0,1-1.23-1.8,6.39,6.39,0,0,1-.45-2.52,6.09,6.09,0,0,1,2.47-5.09,8.22,8.22,0,0,1,2.57-1.29,10.9,10.9,0,0,1,6.66.18,7.16,7.16,0,0,1,3,2.15Z" transform="translate(-12.97 -14.5)"/><path class="b" d="M123.55,98.69h2.8v23.64h-2.8V98.69Z" transform="translate(-12.97 -14.5)"/><path class="b" d="M152.46,120.73a16.65,16.65,0,0,1-4.29,1.67,19.72,19.72,0,0,1-4.56.53,13.82,13.82,0,0,1-5.08-.9,11.86,11.86,0,0,1-4-2.54,11.38,11.38,0,0,1-2.62-3.92,13.26,13.26,0,0,1-.93-5.06,12.74,12.74,0,0,1,1-5.09,11.48,11.48,0,0,1,2.72-3.91,12.57,12.57,0,0,1,4-2.52,13.51,13.51,0,0,1,5-.9,14.43,14.43,0,0,1,4.49.7,9.64,9.64,0,0,1,3.86,2.41l-2.1,2.2a8,8,0,0,0-2.92-2,9.26,9.26,0,0,0-3.52-.7,9.59,9.59,0,0,0-3.77.74,9.13,9.13,0,0,0-5,5.14,11.08,11.08,0,0,0,0,7.85,9.4,9.4,0,0,0,2,3.12,9,9,0,0,0,3.09,2.05,10.44,10.44,0,0,0,4,.73,13.8,13.8,0,0,0,3-.35,12,12,0,0,0,2.87-1v-7.25h-5.44v-2.6h8.25v11.62Z" transform="translate(-12.97 -14.5)"/><path class="b" d="M158.48,98.69H162l13.69,19.64h0.07V98.69h2.8v23.64H175L161.35,102.7h-0.07v19.63h-2.8V98.69Z" transform="translate(-12.97 -14.5)"/><path class="b" d="M184.59,98.69h14.86v2.61H187.39v7.41h11.25v2.6H187.39v8.42H200v2.6H184.59V98.69Z" transform="translate(-12.97 -14.5)"/><path class="b" d="M204.52,98.69h6a28.73,28.73,0,0,1,3.39.2,9.14,9.14,0,0,1,3,.87,5.47,5.47,0,0,1,2.17,2,6.35,6.35,0,0,1,.84,3.49,5.76,5.76,0,0,1-1.57,4.21,7.49,7.49,0,0,1-4.34,2l6.71,10.89h-3.44l-6.41-10.62h-3.61v10.62h-2.8V98.69Zm2.8,10.42h2.5q1.17,0,2.42-.07a8.3,8.3,0,0,0,2.3-.43,4,4,0,0,0,1.74-1.15,3.33,3.33,0,0,0,.68-2.25,3.68,3.68,0,0,0-.5-2,3.39,3.39,0,0,0-1.32-1.19,5.63,5.63,0,0,0-1.84-.55,15.81,15.81,0,0,0-2.05-.13h-3.94v7.81Z" transform="translate(-12.97 -14.5)"/><path class="b" d="M248.13,118.93a12,12,0,0,1-3.07,2.81,7.54,7.54,0,0,1-4,1,9.09,9.09,0,0,1-2.87-.45A7,7,0,0,1,235.8,121a6.55,6.55,0,0,1-1.64-2.12,6.36,6.36,0,0,1-.62-2.86,6.12,6.12,0,0,1,.42-2.29,6.86,6.86,0,0,1,1.13-1.9,8.34,8.34,0,0,1,1.67-1.5,14.39,14.39,0,0,1,2-1.15,14.72,14.72,0,0,1-2-2.47,5.44,5.44,0,0,1-.84-3,5.18,5.18,0,0,1,.5-2.32,5.07,5.07,0,0,1,1.33-1.7,5.79,5.79,0,0,1,1.94-1,7.68,7.68,0,0,1,2.34-.35,7.58,7.58,0,0,1,2.27.33,5.78,5.78,0,0,1,1.89,1,4.58,4.58,0,0,1,1.29,1.64,5.28,5.28,0,0,1,.47,2.29,4.53,4.53,0,0,1-.45,2,6.07,6.07,0,0,1-1.17,1.64,10.16,10.16,0,0,1-1.6,1.3,19.89,19.89,0,0,1-1.79,1.05l5,5.31,3.17-5.31h3.17l-4.54,7.28,5.41,5.54h-3.84Zm-7.61-8.08a17,17,0,0,0-1.5.88,8.49,8.49,0,0,0-1.34,1.09,4.93,4.93,0,0,0-1,1.37,3.88,3.88,0,0,0-.37,1.7,4.19,4.19,0,0,0,.37,1.77,4.49,4.49,0,0,0,1,1.4,4.6,4.6,0,0,0,1.47.94,4.72,4.72,0,0,0,1.77.33,5.06,5.06,0,0,0,1.67-.27,5.87,5.87,0,0,0,1.42-.72,9,9,0,0,0,1.24-1q0.58-.58,1.15-1.25Zm0.7-3,1.37-.77a7.63,7.63,0,0,0,1.27-.9,4.33,4.33,0,0,0,.93-1.17,3.14,3.14,0,0,0,.37-1.54,2.5,2.5,0,0,0-.88-2,3.21,3.21,0,0,0-2.12-.74,3.59,3.59,0,0,0-2.41.85,2.89,2.89,0,0,0-1,2.32,3,3,0,0,0,.52,1.72,11.48,11.48,0,0,0,1.12,1.39Z" transform="translate(-12.97 -14.5)"/><path class="b" d="M267.7,98.69h9.08a12.34,12.34,0,0,1,2.47.27,12.06,12.06,0,0,1,5.06,2.37,10.11,10.11,0,0,1,2.09,2.25,11.27,11.27,0,0,1,1.44,3,14.44,14.44,0,0,1,0,7.78,11.23,11.23,0,0,1-1.44,3,10.09,10.09,0,0,1-2.09,2.25,12.1,12.1,0,0,1-5.06,2.37,12.34,12.34,0,0,1-2.47.27H267.7V98.69Zm2.81,21h5.34a12.75,12.75,0,0,0,3.77-.54,8.05,8.05,0,0,0,3-1.65,7.75,7.75,0,0,0,2-2.86,12.22,12.22,0,0,0,0-8.35,7.77,7.77,0,0,0-2-2.86,8.07,8.07,0,0,0-3-1.65,12.79,12.79,0,0,0-3.77-.53h-5.34v18.43Z" transform="translate(-12.97 -14.5)"/><path class="b" d="M293,98.69h14.86v2.61H295.82v7.41h11.25v2.6H295.82v8.42h12.66v2.6H293V98.69Z" transform="translate(-12.97 -14.5)"/><path class="b" d="M309.71,98.69h3.17l7.28,19.44h0.07l7.51-19.44h3l-9.25,23.64h-2.7Z" transform="translate(-12.97 -14.5)"/><path class="b" d="M333.48,98.69h14.86v2.61H336.29v7.41h11.25v2.6H336.29v8.42h12.66v2.6H333.48V98.69Z" transform="translate(-12.97 -14.5)"/><path class="b" d="M353.42,98.69h2.8v21H367v2.6H353.42V98.69Z" transform="translate(-12.97 -14.5)"/><path class="b" d="M381.23,122.94a12.83,12.83,0,0,1-5-.93,11.9,11.9,0,0,1-3.91-2.59,11.63,11.63,0,0,1-2.57-3.94,13.85,13.85,0,0,1,0-9.92,11.64,11.64,0,0,1,2.57-3.94A11.92,11.92,0,0,1,376.28,99a13.61,13.61,0,0,1,9.92,0,11.93,11.93,0,0,1,3.91,2.59,11.65,11.65,0,0,1,2.57,3.94,13.85,13.85,0,0,1,0,9.92,11.65,11.65,0,0,1-2.57,3.94,11.92,11.92,0,0,1-3.91,2.59A12.83,12.83,0,0,1,381.23,122.94Zm0-2.6a9.2,9.2,0,0,0,3.79-.77,9,9,0,0,0,3-2.1,9.62,9.62,0,0,0,1.92-3.12,11,11,0,0,0,0-7.65,9.65,9.65,0,0,0-1.92-3.12,9,9,0,0,0-3-2.1,9.73,9.73,0,0,0-7.58,0,8.94,8.94,0,0,0-3,2.1,9.61,9.61,0,0,0-1.92,3.12,11,11,0,0,0,0,7.65,9.58,9.58,0,0,0,1.92,3.12,8.94,8.94,0,0,0,3,2.1A9.19,9.19,0,0,0,381.23,120.33Z" transform="translate(-12.97 -14.5)"/><path class="b" d="M398.23,98.69h7a14.92,14.92,0,0,1,3.12.32,7.72,7.72,0,0,1,2.64,1.07,5.5,5.5,0,0,1,1.84,2,7.33,7.33,0,0,1-.05,6.29,5.73,5.73,0,0,1-1.89,2,7.75,7.75,0,0,1-2.52,1,12.17,12.17,0,0,1-2.6.3H401v10.62h-2.8V98.69Zm2.8,10.42h4.74a5.72,5.72,0,0,0,3.42-1,4,4,0,0,0,0-5.91,5.71,5.71,0,0,0-3.42-1H401v7.81Z" transform="translate(-12.97 -14.5)"/><path class="b" d="M418.17,98.69H433v2.61H421v7.41h11.25v2.6H421v8.42h12.66v2.6H418.17V98.69Z" transform="translate(-12.97 -14.5)"/><path class="b" d="M438.1,98.69h6a28.73,28.73,0,0,1,3.39.2,9.14,9.14,0,0,1,3,.87,5.47,5.47,0,0,1,2.17,2,6.35,6.35,0,0,1,.84,3.49,5.76,5.76,0,0,1-1.57,4.21,7.49,7.49,0,0,1-4.34,2l6.71,10.89h-3.44l-6.41-10.62h-3.61v10.62h-2.8V98.69Zm2.8,10.42h2.5q1.17,0,2.42-.07a8.3,8.3,0,0,0,2.3-.43,4,4,0,0,0,1.74-1.15,3.33,3.33,0,0,0,.68-2.25,3.68,3.68,0,0,0-.5-2,3.39,3.39,0,0,0-1.32-1.19,5.63,5.63,0,0,0-1.84-.55,15.81,15.81,0,0,0-2.05-.13h-3.94v7.81Z" transform="translate(-12.97 -14.5)"/></svg>